<?xml version="1.0" encoding="UTF-8"?>
<svg version="1.1" xmlns="http://www.w3.org/2000/svg" width="512" height="512">
<path d="M0 0 C0.09153247 36.96952512 0.162027 73.93903319 0.20426132 110.90864868 C0.20926421 115.27210712 0.2144415 119.63556533 0.21972656 123.99902344 C0.2207758 124.86771847 0.22182505 125.73641351 0.22290608 126.63143264 C0.24031678 140.70180876 0.27185813 154.77211958 0.30861118 168.84245695 C0.34600212 183.27726025 0.36823194 197.71202933 0.37635398 212.14687908 C0.38184559 221.055758 0.39919748 229.96445237 0.43166587 238.87327449 C0.45279096 244.98033721 0.4592046 251.08730436 0.45400551 257.19440098 C0.45144058 260.71923473 0.45540404 264.24374573 0.4768219 267.76852226 C0.49986993 271.58946387 0.49196042 275.40998394 0.48101807 279.23098755 C0.49266943 280.34577645 0.5043208 281.46056536 0.51632524 282.60913575 C0.45718804 290.22471667 -0.6779659 293.72699127 -6.15063477 299.11889648 C-10.08308826 301.71503685 -14.21972785 303.36650738 -18.58984375 305.09765625 C-19.54482758 305.48405777 -20.4998114 305.87045929 -21.48373413 306.26856995 C-24.63200784 307.54074998 -27.7847704 308.80140816 -30.9375 310.0625 C-34.28102581 311.41109966 -37.62329356 312.7627869 -40.96556091 314.11450195 C-43.25663569 315.04078146 -45.54811396 315.96606355 -47.83998108 316.89038086 C-58.07850401 321.02120487 -68.28567115 325.22552062 -78.48461914 329.45294189 C-98.98973257 337.95159711 -119.52898921 346.36551326 -140.07659912 354.76077271 C-148.52154624 358.2117688 -156.96248782 361.67249037 -165.4022522 365.13613892 C-167.78508786 366.11375352 -170.16825889 367.0905463 -172.55151367 368.06713867 C-180.11084188 371.165782 -187.6664155 374.27303318 -195.21342468 377.40158081 C-198.84807971 378.90774088 -202.4843156 380.410062 -206.12069702 381.91204834 C-207.86142631 382.63232643 -209.60136893 383.35450888 -211.34048462 384.07867432 C-213.74069111 385.07800532 -216.14345526 386.07092716 -218.546875 387.0625 C-219.26052719 387.361633 -219.97417938 387.66076599 -220.7094574 387.96896362 C-223.63786069 389.17077349 -225.80126271 390 -229 390 C-229 291.99 -229 193.98 -229 93 C-216.79 88.05 -204.58 83.1 -192 78 C-183.24097461 74.38640362 -183.24097461 74.38640362 -174.49234009 70.74835205 C-158.63104764 64.1285609 -142.72987481 57.60859294 -126.8125 51.125 C-110.75346673 44.58323585 -94.71028522 38.00506489 -78.6875 31.375 C-63.05422953 24.90662417 -47.40942997 18.46730734 -31.75 12.0625 C-30.81739349 11.68091736 -29.88478699 11.29933472 -28.92391968 10.90618896 C-23.95510716 8.87353065 -18.98488706 6.84439631 -14.01245117 4.82061768 C-12.21590923 4.08804136 -10.42129623 3.35073865 -8.62695312 2.61279297 C-7.2724707 2.06002686 -7.2724707 2.06002686 -5.890625 1.49609375 C-5.16391602 1.19759521 -4.43720703 0.89909668 -3.68847656 0.59155273 C-2 0 -2 0 0 0 Z " fill="#FFFFFF" transform="translate(501,122)"/>
<path d="M0 0 C1.58924691 0.4683666 3.17783414 0.93897199 4.7661438 1.4105072 C5.65085924 1.6723326 6.53557468 1.934158 7.44709969 2.2039175 C10.83846493 3.26146233 14.03196614 4.55486136 17.3046875 5.94140625 C17.97024155 6.22129395 18.63579559 6.50118164 19.32151794 6.78955078 C20.75769696 7.39394944 22.19295316 8.0005449 23.62734985 8.60916138 C27.57107535 10.28188871 31.52231753 11.9367158 35.47265625 13.59375 C36.31062241 13.94570938 37.14858856 14.29766876 38.01194763 14.66029358 C48.41895137 19.02555417 58.86559452 23.29384217 69.3125 27.5625 C71.16194661 28.3190918 73.01139323 29.07568359 74.86083984 29.83227539 C76.63241198 30.55633588 78.40405733 31.28021725 80.17578125 32.00390625 C81.01933167 32.3484938 81.86288208 32.69308136 82.73199463 33.04811096 C86.67731732 34.65666941 90.6265283 36.25381757 94.58740234 37.82373047 C95.29100388 38.10280746 95.99460541 38.38188446 96.7195282 38.66941833 C98.59474146 39.41115696 100.47150631 40.14896965 102.34838867 40.88647461 C105 42 105 42 106 43 C106.1039195 45.73205033 106.14361282 48.43964591 106.1418457 51.17236328 C106.14532013 52.02933304 106.14879456 52.8863028 106.15237427 53.76924133 C106.15974647 55.63755769 106.16508401 57.50588289 106.16866493 59.37421036 C106.17581315 62.33352049 106.19146902 65.29266314 106.21000671 68.25192261 C106.26254139 76.66857549 106.31042567 85.08513997 106.32592773 93.50195312 C106.33602286 98.64502868 106.36539217 103.78768818 106.40724754 108.93059921 C106.41954663 110.88970667 106.4246808 112.84887294 106.42244911 114.80801773 C106.42008994 117.55621747 106.44231118 120.30323045 106.4699707 123.05126953 C106.46336929 123.85674728 106.45676788 124.66222504 106.44996643 125.49211121 C106.54223817 131.0948616 107.78252113 134.38548002 111 139 C115.66480156 142.36299647 120.41997725 142.8030291 126 142 C128.87146994 140.63002843 128.87146994 140.63002843 131 139 C131.66 139 132.32 139 133 139 C133.309375 138.21625 133.61875 137.4325 133.9375 136.625 C135 134 135 134 136 132 C136.12197488 129.59026385 136.18559594 127.20745118 136.20532227 124.79638672 C136.21522186 124.0548233 136.22512146 123.31325989 136.23532104 122.54922485 C136.26696363 120.09274512 136.29170431 117.63624603 136.31640625 115.1796875 C136.3369734 113.478602 136.35796981 111.77752164 136.37937927 110.07644653 C136.43462464 105.59499264 136.48402303 101.11349244 136.53222656 96.63195801 C136.5824236 92.06058623 136.63811904 87.48928187 136.69335938 82.91796875 C136.80097109 73.94537006 136.90240936 64.97271289 137 56 C143.34705574 58.01870743 149.49824736 60.351394 155.640625 62.921875 C156.56115662 63.30377991 157.48168823 63.68568481 158.43011475 64.0791626 C161.37130814 65.29983601 164.31077579 66.52459355 167.25 67.75 C187.78186127 76.29718396 208.38770455 84.64366401 229 93 C229 191.01 229 289.02 229 390 C224.71000193 389.14200039 221.03741435 387.93787141 217.03515625 386.2890625 C216.34706879 386.00962296 215.65898132 385.73018341 214.95004272 385.442276 C212.65235793 384.50762375 210.35742617 383.56640338 208.0625 382.625 C206.41750954 381.95391213 204.77240585 381.28310178 203.12719727 380.61254883 C188.2571852 374.54394258 173.41648133 368.40359317 158.57641602 362.26220703 C145.39739741 356.80910257 132.20413429 351.39198296 119 346 C107.84671004 341.44506711 96.69704872 336.88184115 85.5625 332.28125 C84.60887573 331.88730042 83.65525146 331.49335083 82.67272949 331.08746338 C77.87966545 329.10647988 73.08816559 327.12181243 68.29882812 325.13183594 C59.44109312 321.45587401 50.57361166 317.81326183 41.65625 314.28393555 C37.57768119 312.66939585 33.50444876 311.04160536 29.43115234 309.41381836 C27.49814298 308.64631414 25.56230561 307.88588934 23.62353516 307.13305664 C20.93961397 306.09061358 18.26625203 305.02443906 15.59375 303.953125 C14.80842896 303.65589539 14.02310791 303.35866577 13.21398926 303.0524292 C7.16472127 300.58533602 2.95268654 296.90537307 0 291 C-0.09367587 289.40530551 -0.12373461 287.80669283 -0.12304783 286.2092495 C-0.12503888 285.19159929 -0.12702993 284.17394908 -0.12908131 283.12546098 C-0.12616847 281.99902071 -0.12325563 280.87258044 -0.12025452 279.71200562 C-0.12110894 278.52198303 -0.12196337 277.33196044 -0.12284368 276.10587656 C-0.12421038 272.79251543 -0.12106852 269.47921283 -0.11606562 266.16585875 C-0.1117601 262.59667172 -0.11320762 259.02748662 -0.1139679 255.45829773 C-0.11449307 249.27103621 -0.11134698 243.08378521 -0.10573006 236.89652634 C-0.09761413 227.95071258 -0.09499974 219.00490392 -0.09374207 210.05908687 C-0.09155169 195.5462243 -0.084892 181.03336734 -0.07543945 166.52050781 C-0.06626496 152.41992216 -0.05918431 138.31933803 -0.05493164 124.21875 C-0.05466892 123.35005973 -0.05440619 122.48136947 -0.05413551 121.58635525 C-0.0528305 117.2285318 -0.05156679 112.87070833 -0.05032361 108.51288486 C-0.03995145 72.34191927 -0.02233353 36.17096007 0 0 Z " fill="#FFFFFF" transform="translate(11,122)"/>
<path d="M0 0 C1.70412089 0.72409939 3.40921988 1.44590073 5.11523438 2.16552734 C8.67131243 3.66761134 12.22296065 5.17954308 15.77197266 6.69824219 C23.70685907 10.08355046 31.69474624 13.33941608 39.6812439 16.60058594 C42.11525072 17.59546863 44.54776801 18.59389584 46.97973633 19.59375 C56.36127877 23.44933234 65.76250084 27.25189469 75.1875 31 C75.1875 31.99 75.1875 32.98 75.1875 34 C21.64235592 56.94791889 -31.90278816 79.89583778 -85.44793224 102.84375668 C-86.06058091 103.10632039 -86.67322958 103.36888411 -87.30444336 103.6394043 C-91.96541341 105.63696289 -96.62638346 107.63452148 -101.28735352 109.63208008 C-102.90873985 110.32778862 -102.90873985 110.32778862 -104.56288147 111.03755188 C-106.7023294 111.95335063 -108.84337349 112.8654303 -110.98606873 113.77360535 C-116.16990329 115.97628502 -121.32648186 118.21950017 -126.43680954 120.58724594 C-128.96710588 121.75629625 -131.5070436 122.90348244 -134.0480423 124.04904938 C-135.8422207 124.86851697 -137.62229848 125.71863867 -139.40179443 126.56951904 C-148.52597418 130.66338277 -148.52597418 130.66338277 -153.53295898 129.05786133 C-154.97450543 128.40408944 -156.40155686 127.71743523 -157.8125 127 C-159.32401241 126.39062459 -160.83955328 125.79116147 -162.35864258 125.20092773 C-163.97606498 124.53159872 -165.59213464 123.85899401 -167.20703125 123.18359375 C-168.54164902 122.63011009 -168.54164902 122.63011009 -169.90322876 122.06544495 C-171.81664388 121.2716054 -173.72949054 120.4763945 -175.64181519 119.67993164 C-180.75603997 117.54996817 -185.87437795 115.42992582 -190.9921875 113.30859375 C-192.04464157 112.87203461 -193.09709564 112.43547546 -194.18144226 111.98568726 C-206.47079354 106.89127586 -218.7865722 101.86169219 -231.10391235 96.8354187 C-232.92534696 96.09214126 -234.7467001 95.34866415 -236.56796265 94.60496521 C-238.20698865 93.93573691 -239.84623188 93.26704025 -241.48574829 92.59901428 C-245.94802546 90.77714596 -250.38783317 88.91147361 -254.8125 87 C-253.19598345 83.76696689 -249.77006018 83.14987016 -246.5546875 81.8671875 C-245.7974086 81.55876419 -245.0401297 81.25034088 -244.25990295 80.93257141 C-241.7382491 79.90714884 -239.21286995 78.89123236 -236.6875 77.875 C-234.90929195 77.15347638 -233.13138282 76.43121565 -231.35375977 75.70825195 C-227.66002938 74.20671788 -223.96502873 72.70837596 -220.26904297 71.21240234 C-212.87429467 68.21712932 -205.49311288 65.18896741 -198.11300659 62.15783691 C-195.71829622 61.17448127 -193.32317697 60.19212709 -190.92797852 59.20996094 C-178.31767913 54.03745192 -165.72056972 48.83325342 -153.125 43.625 C-133.3815937 35.46134781 -113.61298143 27.36051526 -93.83544922 19.279953 C-84.09503979 15.29956138 -74.35965981 11.30692844 -64.625 7.3125 C-63.83860138 6.9898819 -63.05220276 6.66726379 -62.24197388 6.33486938 C-60.7190114 5.71006272 -59.19620621 5.08487252 -57.67356873 4.45927429 C-56.20865737 3.85885053 -54.74265809 3.26107354 -53.27552795 2.66609192 C-49.60122121 1.17157878 -45.96165819 -0.37154173 -42.34912109 -2.01025391 C-25.96823752 -9.35154325 -16.01717871 -6.98462211 0 0 Z " fill="#FFFFFF" transform="translate(279.8125,7)"/>
<path d="M0 0 C6.39057666 2.38194221 12.65992109 5.03990947 18.93652344 7.70361328 C22.1162343 9.04520256 25.29763114 10.38275754 28.47949219 11.71923828 C29.31456802 12.07037186 30.14964386 12.42150543 31.01002502 12.78327942 C37.7114329 15.59354978 44.43861522 18.33728172 51.17480469 21.06298828 C52.1820459 21.47133408 53.18928711 21.87967987 54.22705078 22.30039978 C58.22782138 23.92214935 62.228569 25.54379386 66.23455811 27.15261841 C69.02696535 28.27438785 71.81597582 29.40424505 74.60449219 30.53564453 C75.44756424 30.87146545 76.29063629 31.20728638 77.15925598 31.55328369 C82.94788702 33.91384044 82.94788702 33.91384044 84.06152344 36.14111328 C64.04767526 44.52083428 44.00328926 52.82168342 23.91540527 61.0223999 C9.61625944 66.86047391 -4.66653774 72.73685326 -18.93847656 78.64111328 C-34.07189435 84.90083864 -49.21627893 91.13279272 -64.37597656 97.32861328 C-65.27967987 97.69799011 -66.18338318 98.06736694 -67.11447144 98.44793701 C-70.71775758 99.92066272 -74.32110035 101.39324979 -77.92451477 102.86566162 C-86.78992186 106.48840054 -95.65363889 110.11525028 -104.51516724 113.74746704 C-106.12934211 114.40893096 -107.74365316 115.07006271 -109.35812378 115.73080444 C-110.86836088 116.34891223 -112.37840945 116.96748089 -113.88825989 117.58653259 C-115.34856981 118.18518718 -116.8093269 118.78275225 -118.27055359 119.37916565 C-122.22400989 120.99931738 -126.15348187 122.66361051 -130.06689453 124.37841797 C-130.92133652 124.74921478 -131.7757785 125.1200116 -132.65611267 125.50204468 C-134.29763951 126.21619132 -135.93541936 126.93903683 -137.56861877 127.67202759 C-143.42477676 130.20910647 -147.28791787 131.05172913 -153.52075195 128.91040039 C-154.86387156 128.34061313 -156.20210452 127.75921612 -157.53613281 127.16845703 C-158.2713768 126.85374451 -159.00662079 126.53903198 -159.7641449 126.21478271 C-161.35191833 125.53399905 -162.93763979 124.84841359 -164.52148438 124.15853882 C-168.75686602 122.31384787 -173.00680726 120.50320652 -177.25488281 118.68798828 C-178.13024689 118.31280563 -179.00561096 117.93762299 -179.90750122 117.55107117 C-190.1561237 113.16954774 -200.49443796 109.0121037 -210.84011841 104.86618042 C-212.37457898 104.25115987 -213.90868547 103.63525501 -215.44239807 103.01837158 C-216.82333669 102.46303953 -218.20513206 101.90983054 -219.58799744 101.35931396 C-223.47267969 99.79668183 -227.21815461 98.06168302 -230.93847656 96.14111328 C-230.93847656 95.48111328 -230.93847656 94.82111328 -230.93847656 94.14111328 C-230.3863147 93.90626221 -229.83415283 93.67141113 -229.26525879 93.42944336 C-202.4750399 82.03394023 -175.69356457 70.6188933 -148.93847656 59.14111328 C-130.61641624 51.28114466 -112.28367855 43.44691545 -93.93847656 35.64111328 C-75.81545834 27.92874546 -57.69922009 20.20073285 -39.59375 12.44726562 C-37.08974583 11.37495555 -34.5855078 10.3031947 -32.08105469 9.23193359 C-28.61372657 7.74846984 -25.14709101 6.2634001 -21.68066406 4.77783203 C-20.6479538 4.33626266 -19.61524353 3.8946933 -18.55123901 3.43974304 C-17.60249908 3.03270645 -16.65375916 2.62566986 -15.67626953 2.20629883 C-14.85319305 1.85375534 -14.03011658 1.50121185 -13.18209839 1.13798523 C-11.68791798 0.47410038 -10.21508884 -0.2400942 -8.76861572 -1.00234985 C-5.60394167 -2.48347219 -3.17332859 -1.05835422 0 0 Z " fill="#FFFFFF" transform="translate(402.9384765625,57.85888671875)"/>
</svg>
