<svg width="80" height="50" viewBox="0 0 80 50" fill="none" xmlns="http://www.w3.org/2000/svg">
<g clip-path="url(#clip0_2448_459)">
<g clip-path="url(#clip1_2448_459)">
<path fill-rule="evenodd" clip-rule="evenodd" d="M35.4984 31.3925L36.6551 31.4097C36.9141 31.3925 37.1385 31.168 37.1558 30.9091L37.1385 29.9595L56.4748 29.9595C60.4112 29.9595 64.1403 28.0259 67.8867 24.1068C68.0421 23.9515 68.0766 23.7443 67.9903 23.5544C67.904 23.3645 67.6968 23.2609 67.5069 23.2781C66.8681 23.3299 66.212 23.3299 65.5387 23.3127C65.6941 23.8824 65.5042 24.5212 65.0035 24.8837C62.362 26.9037 59.4098 28.1985 56.026 28.1985L35.4984 28.1813L35.4984 31.3925Z" fill="white"/>
<path fill-rule="evenodd" clip-rule="evenodd" d="M35.4984 27.2146L56.0433 27.2146C58.9437 27.2146 61.6888 26.196 64.4338 24.107C64.5892 23.9861 64.6583 23.7789 64.5892 23.5718C64.5374 23.3819 64.3648 23.2437 64.1749 23.2265C60.7737 22.933 57.5453 22.1216 57.528 22.1043C57.4935 22.1043 57.4417 22.087 57.4072 22.087L47.6699 22.087C47.4628 22.087 47.2901 22.2251 47.2038 22.415L46.9966 22.9675L46.7895 22.415C46.7031 22.2251 46.5305 22.087 46.3233 22.087L41.5756 22.1043C41.3856 22.087 41.1957 22.2079 41.1267 22.415L40.298 24.5904L39.4347 22.415C39.383 22.2251 39.193 22.1043 38.9859 22.1043H35.4984V27.2146Z" fill="white"/>
<path fill-rule="evenodd" clip-rule="evenodd" d="M33.6856 33.8615C33.7719 33.9479 33.8927 33.9997 34.0308 33.9997C34.3071 33.9997 34.5143 33.7925 34.5143 33.5162V19.9808C34.5143 19.7046 34.3071 19.4974 34.0308 19.4974C33.7719 19.4802 33.5474 19.7046 33.5474 19.9808V33.5162C33.5474 33.6544 33.5992 33.7752 33.6856 33.8615Z" fill="white"/>
<path fill-rule="evenodd" clip-rule="evenodd" d="M16.0757 30.5467C17.1289 31.5998 18.4237 31.6171 19.5114 30.633L20.0811 30.1323C20.6854 30.115 22.947 30.0633 24.5008 30.7884C26.5208 31.7379 29.1623 30.2704 29.6284 30.0115C30.0255 29.8906 32.3217 29.3554 33.7719 30.2532C33.9273 30.3395 34.1172 30.3567 34.2726 30.2704C34.4279 30.1841 34.5315 30.0115 34.5315 29.8388L34.5315 23.6581C34.5143 23.5372 34.4797 23.3991 34.3762 23.3301C34.2726 23.2265 34.1517 23.1747 34.0481 23.1747L18.2511 23.2955C16.6455 23.3128 15.4542 24.0207 14.9363 25.2982C14.2111 27.0937 14.9535 29.4245 16.0757 30.5467ZM31.3376 26.5068C31.5448 26.2996 31.8383 26.3168 32.0282 26.5068C32.2181 26.6967 32.2354 26.9902 32.0282 27.1973C31.8383 27.3872 31.5275 27.3872 31.3376 27.1973C31.1477 27.0074 31.1477 26.6967 31.3376 26.5068ZM26.6416 26.6103C26.8315 26.4204 27.1423 26.4204 27.3322 26.6103C27.5221 26.8002 27.5221 27.111 27.3322 27.3009C27.1423 27.4908 26.8315 27.4908 26.6416 27.3009C26.4517 27.111 26.4517 26.8002 26.6416 26.6103ZM21.773 26.6103C21.9629 26.4204 22.2737 26.4204 22.4636 26.6103C22.6535 26.8002 22.6535 27.111 22.4636 27.3009C22.2737 27.4908 21.9629 27.4908 21.773 27.3009C21.5831 27.111 21.5831 26.8002 21.773 26.6103ZM17.1807 26.6794C17.3706 26.4895 17.6813 26.4895 17.8712 26.6794C18.0611 26.8693 18.0611 27.1801 17.8712 27.37C17.6813 27.5599 17.3706 27.5599 17.1807 27.37C16.9907 27.1801 16.9907 26.8693 17.1807 26.6794Z" fill="white"/>
</g>
</g>
<defs>
<clipPath id="clip0_2448_459">
<rect width="80" height="50" fill="white"/>
</clipPath>
<clipPath id="clip1_2448_459">
<rect width="41.6777" height="41.6777" fill="white" transform="matrix(-0.707107 -0.707107 -0.707107 0.707107 69.9412 25.4707)"/>
</clipPath>
</defs>
</svg>
