<svg width="80" height="50" viewBox="0 0 80 50" fill="none" xmlns="http://www.w3.org/2000/svg">
<g clip-path="url(#clip0_2448_444)">
<path fill-rule="evenodd" clip-rule="evenodd" d="M25.6469 13.0405L26.9409 13.0411L26.9387 17.1136L24.8125 17.1127C24.7951 17.1127 24.7779 17.1139 24.7611 17.1164C24.616 16.3322 24.2005 15.2728 23.0255 14.9622C21.48 14.554 22.9264 12.7734 23.6637 13.4895C23.9756 13.7924 24.7528 14.407 25.2561 13.5982L25.6469 13.0405ZM23.184 32.6555C23.7384 32.6555 24.1879 33.105 24.1879 33.6595C24.1879 34.2139 23.7384 34.6634 23.184 34.6634C22.6295 34.6634 22.18 34.2139 22.18 33.6595C22.18 33.105 22.6295 32.6555 23.184 32.6555ZM35.0125 24.4335C33.2565 22.5938 35.851 20.8502 35.851 20.8502L40.1077 20.8518C42.1717 20.8526 40.7653 24.4358 39.3248 24.4351L35.0125 24.4335ZM27.6575 13.0414L28.2991 13.0417L28.297 17.1143L27.6553 17.114L27.6575 13.0414ZM29.0157 13.042L29.6574 13.0423L29.6553 17.1149L29.0135 17.1146L29.0157 13.042ZM30.374 13.0426L31.0156 13.0429L31.0135 17.1155L30.3718 17.1153L30.374 13.0426ZM31.7322 13.0433L32.3739 13.0436L32.3717 17.1161L31.7301 17.1158L31.7322 13.0433ZM33.0905 13.0438L33.7322 13.0441L33.73 17.1168L33.0884 17.1164L33.0905 13.0438ZM34.4487 13.0445L35.0904 13.0448L35.0883 17.1173L34.4466 17.1171L34.4487 13.0445ZM35.807 13.0451L36.4486 13.0454L36.4466 17.1179L35.8048 17.1176L35.807 13.0451ZM37.1653 13.0457L37.8069 13.046L37.8047 17.1186L37.1631 17.1183L37.1653 13.0457ZM38.5235 13.0463L59.1117 13.0556C59.1117 13.0556 59.1771 14.5994 59.212 16.1846L59.2098 16.1845L53.7072 16.182H53.6779C52.6405 16.1815 52.174 16.1814 51.5029 17.1247L38.5214 17.1189L38.5235 13.0463ZM59.2254 16.9007C59.2468 18.3141 59.2314 19.5757 59.1088 19.5756C58.8298 19.5755 51.6907 19.5723 51.6907 19.5723L51.6902 20.7324L43.7702 20.7288C43.7702 20.7288 42.3756 21.0628 42.5425 22.2342C42.5425 22.2342 42.597 24.9672 40.7003 25.7472L34.5093 25.7443C31.8814 26.4939 30.3653 34.1095 29.4846 36.7576C29.4846 36.7576 30.8782 38.4036 29.1495 37.8451C27.5888 37.3409 21.6644 36.4937 20.5272 36.3338C19.6518 36.2107 20.0785 34.7811 20.3108 34.2993C21.4849 31.4056 26.082 23.8932 22.8541 21.9185L21.4366 21.538C21.4366 21.538 19.9541 20.9969 21.5719 20.3005C21.5719 20.3005 24.7511 20.302 24.8358 18.0152C24.8358 18.0152 24.8391 17.9462 24.8362 17.8292L27.2841 17.8304C27.2884 17.8306 27.2926 17.8307 27.2968 17.8307C27.301 17.8307 27.3051 17.8306 27.3092 17.8304L28.6444 17.831L28.6551 17.8311L28.6655 17.831L30.0064 17.8316L30.0134 17.8317L30.0198 17.8316L51.6918 17.8414V17.8428C51.8251 17.8429 51.9415 17.7704 52.0037 17.6627C52.5168 16.8981 52.8629 16.8981 53.6779 16.8986H53.7072L59.2098 16.9011C59.2151 16.9011 59.2203 16.9009 59.2254 16.9007Z" fill="white"/>
<path d="M37.9405 21.0134C38.1418 20.7946 38.1277 20.4539 37.9089 20.2525C37.6901 20.0513 37.3494 20.0653 37.1481 20.2842C37.1415 20.2912 34.8648 22.7136 36.7227 25.0019C36.9102 25.2324 37.2489 25.2673 37.4794 25.0799C37.7098 24.8925 37.7448 24.5537 37.5574 24.3233C36.2941 22.7673 37.9358 21.0184 37.9405 21.0134Z" fill="white"/>
<path fill-rule="evenodd" clip-rule="evenodd" d="M60.9991 15.8358L61 13.7594L59.8585 13.7588C59.8777 14.2813 59.9034 15.0388 59.9232 15.8352L60.9991 15.8358Z" fill="white"/>
<path fill-rule="evenodd" clip-rule="evenodd" d="M57.6909 12.3357C58.142 9.41923 53.9653 12.334 53.9653 12.334L57.6909 12.3357Z" fill="white"/>
</g>
<defs>
<clipPath id="clip0_2448_444">
<rect width="41" height="41" fill="white" transform="translate(20 4)"/>
</clipPath>
</defs>
</svg>
