<svg width="80" height="50" viewBox="0 0 80 50" fill="none" xmlns="http://www.w3.org/2000/svg">
<g clip-path="url(#clip0_2448_436)">
<g clip-path="url(#clip1_2448_436)">
<path d="M74.8005 24.4359C74.8562 24.056 74.5881 23.7484 74.2042 23.7515L73.1542 23.7601L73.4527 21.7209C73.4982 21.4107 73.2804 21.1609 72.9703 21.1673C72.7195 21.1694 72.4763 21.334 72.3672 21.5711L71.3911 23.7745L66.7524 23.8123L65.3239 22.7979C64.8377 22.4572 64.2347 22.2724 63.5922 22.2776L59.024 22.3149L58.89 23.2297L63.2231 23.1944C63.5948 23.1952 63.9471 23.3007 64.2255 23.5114C64.5004 23.7183 64.8483 23.8277 65.2245 23.8247L58.7946 23.881L58.5926 25.261L65.3515 25.202L65.3094 25.516L58.5472 25.5712C58.5178 25.7717 58.5092 25.8535 58.4883 25.9201L65.274 25.8648C65.3006 26.004 65.4146 26.1076 65.5713 26.1063L66.065 26.1023C66.2217 26.1009 66.3663 25.9953 66.4338 25.8553L71.3155 25.8155C71.3421 25.9547 71.456 26.0583 71.6128 26.057L72.467 26.05C72.6628 26.0484 72.8423 25.8921 72.8707 25.6983L72.9524 25.1401L74.0024 25.1315C74.386 25.1285 74.7448 24.8158 74.8005 24.4359ZM66.5037 25.5103L66.5502 25.1924L71.3927 25.1529L71.3507 25.4669L66.5037 25.5103Z" fill="white"/>
<path d="M23.2331 23.8151C22.6606 24.0907 21.9268 24.3717 21.3044 24.373C20.7436 24.3814 20.2549 24.1647 19.8826 23.9277C19.2309 23.5148 18.4376 23.3199 17.6071 23.3267L9.04707 23.3927C8.25118 23.403 7.51555 24.044 7.39643 24.831L6.74138 29.3318C6.60295 30.2507 7.37393 30.9181 8.31016 30.6974L24.7438 26.8346L25.266 23.2681C24.5831 23.3083 23.8897 23.4999 23.2331 23.8151Z" fill="white"/>
<path d="M43.9132 22.59C43.8711 22.8773 44.0724 23.1083 44.3628 23.106L49.1191 23.0671C49.4095 23.0648 49.679 22.83 49.7211 22.5426L49.9268 21.1379C49.9688 20.8506 49.7675 20.6196 49.4772 20.622L44.7208 20.6608C44.4305 20.6631 44.161 20.898 44.1189 21.1853L43.9132 22.59Z" fill="white"/>
<path d="M45.4251 36.3066C45.7899 35.8583 45.7895 35.2587 45.4186 34.9249C42.814 32.581 41.2367 29.9186 41.953 26.4347L45.0647 26.4093L56.8027 26.3136C57.0926 26.3113 57.3617 26.0767 57.4082 25.7859L57.91 22.3319C57.952 22.045 57.751 21.8143 57.4611 21.8167L50.9261 21.87L50.8284 22.5368C50.6979 23.4285 49.8591 24.1594 48.9579 24.1668L45.3927 24.1959L45.3883 24.1997L44.2017 24.2056C43.7674 24.2052 43.3804 24.0419 43.1157 23.7382C42.8511 23.4345 42.7422 23.0288 42.8091 22.5985L43.0078 21.2416L30.0083 21.3476C29.1418 21.3585 28.2636 21.691 27.5426 22.2854L26.3754 23.2552L25.8908 26.5653L25.8898 26.5653L26.9224 27.847C27.1239 28.097 27.1354 28.4642 26.9519 28.7827L24.7128 32.6672C24.4638 33.0992 24.5821 33.5964 24.9805 33.7929L26.6708 34.6269C27.0409 34.8094 27.5352 34.6729 27.8288 34.307C27.9796 34.1191 28.0589 33.8921 28.0504 33.6728L28.0203 32.8965C28.0144 32.743 28.0516 32.5844 28.1277 32.4374L29.6991 29.4066C29.8043 29.2036 29.9778 29.0348 30.1859 28.9333C30.5353 28.7628 30.7877 28.4286 30.8407 28.066L30.8455 28.0339C30.8071 28.2959 30.8806 28.5482 31.047 28.7259L31.3557 29.0556C31.5108 29.2214 31.7318 29.3115 31.9782 29.3095L34.5295 29.2887C34.7759 29.2867 35.0239 29.1928 35.2281 29.0241L35.6342 28.6884C35.853 28.5074 36.0006 28.2534 36.039 27.9915L36.2602 26.4812L36.7861 26.4769C36.5714 31.6705 38.2874 35.8207 41.9338 38.9274C42.3662 39.2957 43.0849 39.1818 43.4998 38.6721L45.4251 36.3066ZM31.0605 22.9747C31.4065 22.9719 32.8496 23.3611 33.8242 23.6358C34.0918 23.7112 34.0346 24.1023 33.7442 24.1824C32.6867 24.4741 31.1259 24.8883 30.7799 24.8911C30.2443 24.8955 29.8737 24.4702 29.9513 23.9402C30.0287 23.4115 30.525 22.979 31.0605 22.9747ZM35.5131 27.9958C35.4957 28.1148 35.4287 28.2303 35.3292 28.3125L34.9233 28.6481C34.8303 28.7248 34.7176 28.7675 34.6057 28.7685L32.0543 28.7892C31.9424 28.7901 31.8419 28.7491 31.7714 28.6738L31.4628 28.344C31.3873 28.2632 31.3538 28.1486 31.3712 28.0296L31.5923 26.5193L31.7455 26.518C31.7568 27.3217 32.2314 27.8588 32.6674 28.1772C32.7915 28.2677 32.9896 28.1193 32.938 27.9727C32.7677 27.4898 32.8799 26.9332 33.0256 26.5076L35.7342 26.4855L35.5131 27.9958Z" fill="white"/>
</g>
</g>
<defs>
<clipPath id="clip0_2448_436">
<rect width="80" height="50" fill="white"/>
</clipPath>
<clipPath id="clip1_2448_436">
<rect width="48.0538" height="56.0627" fill="white" transform="translate(45.267 -11) rotate(48.9314)"/>
</clipPath>
</defs>
</svg>
